<svg xmlns="http://www.w3.org/2000/svg" xmlns:ev="http://www.w3.org/2001/xml-events" xmlns:xlink="http://www.w3.org/1999/xlink" id="Union_Jack" width="1200" height="600" baseProfile="full" preserveAspectRatio="xMidYMid meet" version="1.1" viewBox="-15 -7.5 30 15" zoomAndPan="magnify"><defs><clipPath id="border"><rect width="30" height="15" x="-15" y="-7.5"/></clipPath></defs><g clip-path="url(#border)"><circle r="20" fill="#00247D"/><path id="diags_white" stroke="#fff" stroke-width="3" d="M -20,-10 L 20,10 M -20,10 L 20,-10"/><path id="diags_red" stroke="#CF142B" stroke-width="2" d="M -20,-10 L 20,10 M -20,10 L 20,-10"/><path id="eraser_white" fill="#fff" stroke="none" d="M 0,0 l 20,10 h -3 l -20,-10 M 0,0 l 20,-10 h 3 l -20,10 M 0,0 l -20,10 h -3 l 20,-10 M 0,0 l -20,-10 h 3 l 20,10"/><path id="cross_white" stroke="#fff" stroke-width="5" d="M -20,0 H 20 M 0,-10 V 10"/><path id="cross_red" stroke="#CF142B" stroke-width="3" d="M -20,0 H 20 M 0,-10 V 10"/></g></svg>