<svg xmlns="http://www.w3.org/2000/svg" xmlns:xlink="http://www.w3.org/1999/xlink" width="1155" height="660" viewBox="-770 -440 1540 880"><defs><path id="Allahu_Akbar" fill="#fff" d="M 0,0 h 1 v -2 h 3 v 2 h 5 v -3 h -3 v 1 h 2 v 1 h -3 v -2 H 0 z M 2,0 h 1 v -1 h -1 z M 0,-4 h 13 v -1 H 0 z M 13,0 h -3 v -3 h 4 v -2 h 1 v 4 h 1 v -4 h 1 v 4 h 1 v -4 h 1 v 5 h -5 v -2 h -3 v 1 h 2 z" transform="translate(-9.5)"/><path id="lines" fill="#fff" d="M 0,0 h 9 v -2 H 0 z M 10,0 h 9 v -2 H 10 z" transform="translate(-9.5)"/></defs><rect width="1540" height="880" x="-770" y="-440" fill="#fff"/><rect width="1540" height="294" x="-770" y="-440" fill="#239f40"/><g fill="#da0000"><rect width="1540" height="294" x="-770" y="146"/><g><path d="M 0,22 l -16,13 l 3,208 l 13,15 l 13,-15 l 3,-208 z" transform="translate(0,-128)"/><path d="M 32,0 a 22,22 0 0,1 -32,6 a 22,22 0 0,1 -32,-6 a 19,19 0 0,0 32,18 a 19,19 0 0,0 32,-18" transform="translate(0,-128)"/><path d="M 40,29 a 130,130 0 0,1 -120,206 a 120.5,120.5 0 0,0 120,-206" transform="translate(0,-128)"/><path d="M -40,29 a 130,130 0 0,0 120,206 a 120.5,120.5 0 0,1 -120,-206" transform="translate(0,-128)"/><path d="M 55,25 a 130,130 0 0,1 22,190 a 103,103 0 0,0 -22,-190" transform="translate(0,-128)"/><path d="M -55,25 a 130,130 0 0,0 -22,190 a 103,103 0 0,1 22,-190" transform="translate(0,-128)"/></g></g><g id="Allahu_Akbar_11" transform="translate(0,-160) scale(7)"><use transform="translate(-100)" xlink:href="#Allahu_Akbar"/><use transform="translate(-80)" xlink:href="#Allahu_Akbar"/><use transform="translate(-60)" xlink:href="#Allahu_Akbar"/><use transform="translate(-40)" xlink:href="#Allahu_Akbar"/><use transform="translate(-20)" xlink:href="#Allahu_Akbar"/><use xlink:href="#Allahu_Akbar"/><use transform="translate(20)" xlink:href="#Allahu_Akbar"/><use transform="translate(40)" xlink:href="#Allahu_Akbar"/><use transform="translate(60)" xlink:href="#Allahu_Akbar"/><use transform="translate(80)" xlink:href="#Allahu_Akbar"/><use transform="translate(100)" xlink:href="#Allahu_Akbar"/></g><g id="lines_11" transform="translate(0,-139) scale(7)"><use transform="translate(-100)" xlink:href="#lines"/><use transform="translate(-80)" xlink:href="#lines"/><use transform="translate(-60)" xlink:href="#lines"/><use transform="translate(-40)" xlink:href="#lines"/><use transform="translate(-20)" xlink:href="#lines"/><use xlink:href="#lines"/><use transform="translate(20)" xlink:href="#lines"/><use transform="translate(40)" xlink:href="#lines"/><use transform="translate(60)" xlink:href="#lines"/><use transform="translate(80)" xlink:href="#lines"/><use transform="translate(100)" xlink:href="#lines"/></g><use transform="translate(0,355)" xlink:href="#Allahu_Akbar_11"/><use transform="translate(0,292)" xlink:href="#lines_11"/></svg>