<svg xmlns="http://www.w3.org/2000/svg" xmlns:xlink="http://www.w3.org/1999/xlink" id="svg1" width="500" height="300" x="0" y="0" version="1.0"><g id="layer1"><rect width="500" height="300" x="125" y="377.362" transform="translate(-125.0000,-377.3622)" style="fill:#ffc61e;fill-opacity:1;stroke:none;stroke-width:1.25;stroke-linecap:butt;stroke-linejoin:miter;stroke-miterlimit:4;stroke-opacity:1" id="rect1061"/><rect width="500" height="225" x="125" y="452.362" transform="translate(-125.0000,-377.3622)" style="fill:#fff;fill-opacity:1;stroke:none;stroke-width:1.25;stroke-linecap:butt;stroke-linejoin:miter;stroke-miterlimit:4;stroke-opacity:1" id="rect2304"/><rect width="500" height="150" x="125" y="527.362" transform="translate(-125.0000,-377.3622)" style="fill:#ce1126;fill-opacity:1;stroke:none;stroke-width:1.25;stroke-linecap:butt;stroke-linejoin:miter;stroke-miterlimit:4;stroke-opacity:1" id="rect2926"/><rect width="500" height="75" x="125" y="602.362" transform="translate(-125.0000,-377.3622)" style="fill:#3a75c4;fill-opacity:1;stroke:none;stroke-width:1.25;stroke-linecap:butt;stroke-linejoin:miter;stroke-miterlimit:4;stroke-opacity:1" id="rect3548"/><path d="M 125.00000,677.36218 L 375.00000,527.36218 L 125.00000,377.36218 L 125.00000,677.36218 z" transform="translate(-125.0000,-377.3622)" style="fill:#3d8e33;fill-opacity:1;fill-rule:evenodd;stroke:none;stroke-width:.25pt;stroke-linecap:butt;stroke-linejoin:miter;stroke-opacity:1" id="path4170"/><path d="M 302.78550 421.47113 A 89.675148 89.675148 0 1 1 123.43520,421.47113 A 89.675148 89.675148 0 1 1 302.78550 421.47113 z" transform="matrix(0.752717,0.000000,0.000000,0.752717,-75.41178,-167.2485)" style="fill:#fff;fill-opacity:1;stroke:none;stroke-width:1.25;stroke-linecap:butt;stroke-linejoin:miter;stroke-miterlimit:4;stroke-opacity:1" id="path5413"/><path d="M 302.78550 421.47113 A 89.675148 89.675148 0 1 1 123.43520,421.47113 A 89.675148 89.675148 0 1 1 302.78550 421.47113 z" transform="matrix(0.752717,0.000000,0.000000,0.752717,-45.41178,-167.2485)" style="fill:#3d8e33;fill-opacity:1;stroke:none;stroke-width:1.25;stroke-linecap:butt;stroke-linejoin:miter;stroke-miterlimit:4;stroke-opacity:1" id="path5414"/><path d="M 186.31282,571.25130 L 195.39491,571.25130 L 198.20037,562.61380 L 201.00583,571.25130 L 210.08793,571.25130 L 202.74142,576.58880 L 205.54689,585.22630 L 198.20037,579.88879 L 190.85387,585.22630 L 193.65933,576.58880 L 186.31282,571.25130 z" transform="translate(-98.20038,-376.8013)" style="fill:#fff;fill-opacity:1;fill-rule:evenodd;stroke:none;stroke-width:1pt;stroke-linecap:butt;stroke-linejoin:miter;stroke-opacity:1" id="path2203"/><path d="M 186.31282,571.25130 L 195.39491,571.25130 L 198.20037,562.61380 L 201.00583,571.25130 L 210.08793,571.25130 L 202.74142,576.58880 L 205.54689,585.22630 L 198.20037,579.88879 L 190.85387,585.22630 L 193.65933,576.58880 L 186.31282,571.25130 z" transform="translate(-98.20038,-473.4263)" style="fill:#fff;fill-opacity:1;fill-rule:evenodd;stroke:none;stroke-width:1pt;stroke-linecap:butt;stroke-linejoin:miter;stroke-opacity:1" id="path6092"/><path d="M 186.31282,571.25130 L 195.39491,571.25130 L 198.20037,562.61380 L 201.00583,571.25130 L 210.08793,571.25130 L 202.74142,576.58880 L 205.54689,585.22630 L 198.20037,579.88879 L 190.85387,585.22630 L 193.65933,576.58880 L 186.31282,571.25130 z" transform="translate(-98.20038,-441.2180)" style="fill:#fff;fill-opacity:1;fill-rule:evenodd;stroke:none;stroke-width:1pt;stroke-linecap:butt;stroke-linejoin:miter;stroke-opacity:1" id="path6095"/><path d="M 186.31282,571.25130 L 195.39491,571.25130 L 198.20037,562.61380 L 201.00583,571.25130 L 210.08793,571.25130 L 202.74142,576.58880 L 205.54689,585.22630 L 198.20037,579.88879 L 190.85387,585.22630 L 193.65933,576.58880 L 186.31282,571.25130 z" transform="translate(-98.20038,-409.0097)" style="fill:#fff;fill-opacity:1;fill-rule:evenodd;stroke:none;stroke-width:1pt;stroke-linecap:butt;stroke-linejoin:miter;stroke-opacity:1" id="path6098"/></g></svg>